<?xml version="1.0" encoding="utf-8"?>
<!-- Svg Vector Icons : http://www.onlinewebfonts.com/icon -->
<!DOCTYPE svg PUBLIC "-//W3C//DTD SVG 1.1//EN" "http://www.w3.org/Graphics/SVG/1.1/DTD/svg11.dtd">
<svg version="1.1" xmlns="http://www.w3.org/2000/svg" xmlns:xlink="http://www.w3.org/1999/xlink" x="0px" y="0px" viewBox="0 0 1000 1000" enable-background="new 0 0 1000 1000" xml:space="preserve">
<metadata> Svg Vector Icons : http://www.onlinewebfonts.com/icon </metadata>
<g><path d="M500,10C229.4,10,10,229.4,10,500c0,270.6,219.4,490,490,490c270.6,0,490-219.4,490-490C990,229.4,770.6,10,500,10z M548.6,721c-1.1,37.1-28.3,60-63.6,59c-33.9-1-60.4-25.5-59.4-62.6c1.1-37.1,29-60.9,62.8-59.8C523.8,658.6,549.6,683.8,548.6,721z M652,449.9c-9.1,12.8-29.5,29.2-55.2,49.1l-28.4,19.5c-13.8,10.7-26.1,23.1-30.6,37.3c-2.4,7.5-3.8,14.2-4.4,27.2c-0.1,2.6-1.7,8.5-9.7,8.5c-8,0-59.7,0-68.6,0s-9.9-5.3-9.8-7.8c1.3-35.8,3.2-61.7,17.4-78.4c24.6-28.7,51.7-45.9,51.7-45.9c4.3-3.2,30.4-21.6,43.6-30.6c13.2-9.1,26-28.3,27-47.5c1.6-32.8-12.5-52.5-27-60.9c-14.4-8.4-34.6-13.9-62.7-13.9c-27.6,0-47.1,9.1-58.6,27.3c-8.9,14.1-14.3,28.6-16.4,43.5c0,0.1,0,0.1,0,0.2c0-0.1,0-0.2,0-0.2c-0.5,6.1-8.3,13.4-17.3,13.4h-64.4c-9.1,0-16-6.7-15.5-14.9c4.8-59.7,23-102.6,64.2-128.7c28.1-18,62.6-27,103.5-27c53.8,0,98.5,12.8,134.1,38.4c35.6,25.6,53.4,63.5,53.4,113.7C678.3,402.9,667.4,428.9,652,449.9z"/></g>
</svg>