<?xml version="1.0" encoding="iso-8859-1"?>
<!-- Generator: Adobe Illustrator 18.1.1, SVG Export Plug-In . SVG Version: 6.00 Build 0)  -->
<svg xmlns="http://www.w3.org/2000/svg" xmlns:xlink="http://www.w3.org/1999/xlink" version="1.1" id="Capa_1" x="0px" y="0px" viewBox="0 0 332.202 332.202" style="enable-background:new 0 0 332.202 332.202;" xml:space="preserve" width="512px" height="512px">
<g>
	<g>
		<path d="M46.613,72.296c0,5.075,1.207,9.861,3.302,14.131c13.946-15.871,31.068-28.881,50.387-37.997    c-5.706-5.145-13.233-8.305-21.517-8.305C61.015,40.124,46.613,54.527,46.613,72.296z" fill="#00fefe"/>
		<path d="M166.098,332.202c79.427,0,143.814-64.388,143.814-143.814c0-71.127-51.649-130.151-119.474-141.72    v-5.515v-5.526V19.711h12.472c4.128,0,7.479-4.417,7.479-9.856c0-5.445-3.35-9.856-7.479-9.856h-73.618    c-4.128,0-7.479,4.411-7.479,9.856s3.35,9.856,7.479,9.856h12.472v15.915v5.526v5.515c-12.107,2.067-23.698,5.646-34.571,10.535    c-19.668,8.844-36.98,21.968-50.763,38.204c-21.283,25.074-34.141,57.518-34.141,92.981    C22.284,267.814,86.671,332.202,166.098,332.202z M82.929,104.174c7.539-7.446,16.072-13.88,25.379-19.102    c17.106-9.605,36.812-15.11,57.79-15.11c65.301,0,118.43,53.129,118.43,118.43s-53.129,118.43-118.43,118.43    s-118.43-53.134-118.43-118.436C47.668,155.47,61.179,125.659,82.929,104.174z" fill="#00fefe"/>
		<path d="M77.512,239.215c2.866,4.988,6.146,9.714,9.79,14.125c18.727,22.692,47.075,37.16,78.796,37.16    c56.398,0,102.113-45.715,102.113-102.113S222.496,86.274,166.098,86.274c-31.721,0-60.069,14.468-78.796,37.16    c-3.644,4.411-6.918,9.138-9.79,14.125c-8.605,14.968-13.527,32.324-13.527,50.828C63.985,206.891,68.907,224.247,77.512,239.215z     M80.803,167.697c0-3.002,2.437-5.439,5.439-5.439h156.825c3.002,0,5.439,2.437,5.439,5.439v42.604    c0,3.002-2.437,5.439-5.439,5.439H86.242c-3.002,0-5.439-2.437-5.439-5.439V167.697z" fill="#00fefe"/>
		<path d="M119.137,208.137c5.939,0,10.1-1.697,12.488-5.091c2.388-3.394,3.584-8.229,3.584-14.506    c0-6.277-1.197-11.123-3.584-14.533c-2.388-3.41-6.554-5.118-12.488-5.118c-5.934,0-10.1,1.708-12.488,5.118    c-2.388,3.41-3.584,8.257-3.584,14.533s1.197,11.112,3.584,14.506C109.037,206.44,113.203,208.137,119.137,208.137z     M113.736,178.363c0.881-2.203,2.681-3.307,5.401-3.307c2.72,0,4.504,1.104,5.352,3.307c0.848,2.203,1.273,5.597,1.273,10.176    c0,4.373-0.424,7.718-1.273,10.035c-0.848,2.317-2.632,3.476-5.352,3.476c-2.72,0-4.52-1.159-5.401-3.476    c-0.881-2.317-1.316-5.662-1.316-10.035C112.42,183.96,112.861,180.566,113.736,178.363z" fill="#00fefe"/>
		<rect x="145.082" y="199.353" width="9.741" height="7.843" fill="#00fefe"/>
		<rect x="145.082" y="179.701" width="9.741" height="7.843" fill="#00fefe"/>
		<path d="M177.683,208.137c5.934,0,10.1-1.697,12.488-5.091c2.388-3.394,3.584-8.229,3.584-14.506    c0-6.277-1.197-11.123-3.584-14.533c-2.388-3.41-6.554-5.118-12.488-5.118c-5.939,0-10.1,1.708-12.488,5.118    c-2.388,3.41-3.584,8.257-3.584,14.533s1.197,11.112,3.584,14.506C167.583,206.44,171.744,208.137,177.683,208.137z     M172.282,178.363c0.881-2.203,2.681-3.307,5.401-3.307c2.72,0,4.504,1.104,5.352,3.307c0.849,2.203,1.267,5.597,1.267,10.176    c0,4.373-0.424,7.718-1.267,10.035c-0.843,2.317-2.633,3.476-5.352,3.476c-2.72,0-4.52-1.159-5.401-3.476    s-1.316-5.662-1.316-10.035C170.961,183.96,171.401,180.566,172.282,178.363z" fill="#00fefe"/>
		<path d="M214.299,208.137c5.939,0,10.1-1.697,12.488-5.091c2.388-3.394,3.584-8.229,3.584-14.506    c0-6.277-1.197-11.123-3.584-14.533c-2.388-3.41-6.554-5.118-12.488-5.118c-5.934,0-10.1,1.708-12.488,5.118    c-2.388,3.41-3.584,8.257-3.584,14.533s1.197,11.112,3.584,14.506C204.199,206.44,208.365,208.137,214.299,208.137z     M208.898,178.363c0.881-2.203,2.681-3.307,5.401-3.307c2.72,0,4.504,1.104,5.352,3.307c0.848,2.203,1.267,5.597,1.267,10.176    c0,4.373-0.424,7.718-1.267,10.035c-0.848,2.317-2.633,3.476-5.352,3.476c-2.72,0-4.52-1.159-5.401-3.476    c-0.881-2.317-1.316-5.662-1.316-10.035C207.582,183.96,208.022,180.566,208.898,178.363z" fill="#00fefe"/>
	</g>
</g>
<g>
</g>
<g>
</g>
<g>
</g>
<g>
</g>
<g>
</g>
<g>
</g>
<g>
</g>
<g>
</g>
<g>
</g>
<g>
</g>
<g>
</g>
<g>
</g>
<g>
</g>
<g>
</g>
<g>
</g>
</svg>
