<?xml version="1.0" encoding="utf-8"?>
<!-- Generator: Adobe Illustrator 21.0.2, SVG Export Plug-In . SVG Version: 6.00 Build 0)  -->
<svg version="1.1" id="Layer_1" xmlns="http://www.w3.org/2000/svg" xmlns:xlink="http://www.w3.org/1999/xlink" x="0px" y="0px"
	 width="106.8px" height="75.2px" viewBox="0 0 106.8 75.2" style="enable-background:new 0 0 106.8 75.2;" xml:space="preserve">
<style type="text/css">
	.st0{fill:#FFFFFF;}
</style>
<g id="XMLID_822_">
	<path id="XMLID_823_" class="st0" d="M102.6,6.5C98.8,1.9,91.7,0,78.1,0H28.7C14.8,0,7.6,2,3.7,6.9C0,11.6,0,18.6,0,28.3v18.5
		c0,18.8,4.4,28.3,28.7,28.3h49.3c11.8,0,18.3-1.6,22.5-5.7c4.3-4.1,6.2-10.9,6.2-22.6V28.3C106.8,18.1,106.5,11.1,102.6,6.5z
		 M68.6,40.1L46.2,51.8c-0.5,0.3-1,0.4-1.6,0.4c-0.6,0-1.2-0.2-1.8-0.5c-1-0.6-1.7-1.7-1.7-2.9V25.4c0-1.2,0.6-2.3,1.7-2.9
		c1-0.6,2.3-0.7,3.4-0.1L68.6,34c1.1,0.6,1.9,1.8,1.9,3.1C70.4,38.4,69.7,39.5,68.6,40.1z"/>
</g>
</svg>
