<?xml version="1.0" encoding="utf-8"?>
<!-- Generator: Adobe Illustrator 21.0.2, SVG Export Plug-In . SVG Version: 6.00 Build 0)  -->
<svg version="1.1"
	 id="Слой_1" text-rendering="geometricPrecision" shape-rendering="geometricPrecision" image-rendering="optimizeQuality"
	 xmlns="http://www.w3.org/2000/svg" xmlns:xlink="http://www.w3.org/1999/xlink" x="0px" y="0px" width="44.1px" height="43.2px"
	 viewBox="0 0 44.1 43.2" style="enable-background:new 0 0 44.1 43.2;" xml:space="preserve">
<style type="text/css">
	.st0{fill:#FFFFFF;}
</style>
<g id="Layer_x0020_1">
	<g id="_3105959440768">
		<polygon class="st0" points="13.4,11.3 26.2,11.3 26.2,14.8 17.5,14.8 17.5,22.6 26.2,22.6 26.2,20.3 19.6,20.3 19.6,16.9 
			30.3,16.9 30.3,22.6 30.3,22.6 30.3,26.1 30.3,26.1 30.3,31.7 19.6,31.7 19.6,28.2 26.2,28.2 26.2,26.1 13.4,26.1 		"/>
		<path class="st0" d="M21.6,0c0.4,0,0.7,0,1,0l0,0c0.5,0.1,0.9,0.5,0.9,1s-0.4,1-0.9,1l0,0h-0.1h-0.1c-0.1,0-0.1,0-0.1,0
			c-0.2,0-0.5,0-0.8,0C16.2,2,11.3,4.3,7.7,7.8S2,16.2,2,21.6s2.2,10.3,5.7,13.9s8.5,5.7,13.9,5.7c0.4,0,0.7,0,1,0l0,0
			c0.5,0,1,0.5,1,1c0,0.5-0.5,1-1,1c0,0,0,0-0.1,0c-0.3,0-0.7,0-1,0c-5.9,0-11.3-2.4-15.3-6.3C2.4,32.9,0,27.5,0,21.6
			S2.4,10.3,6.3,6.3C10.2,2.4,15.7,0,21.6,0L21.6,0z"/>
		<path class="st0" d="M26.3,2.5c0.7,0,1.2-0.5,1.2-1.2S27,0.1,26.3,0.1c-0.7,0-1.2,0.5-1.2,1.2S25.7,2.5,26.3,2.5L26.3,2.5z"/>
		<path class="st0" d="M30.5,4c0.7,0,1.2-0.5,1.2-1.2s-0.5-1.2-1.2-1.2s-1.2,0.5-1.2,1.2S29.8,4,30.5,4L30.5,4z"/>
		<path class="st0" d="M34.3,6c0.7,0,1.2-0.5,1.2-1.2s-0.5-1.2-1.2-1.2s-1.2,0.5-1.2,1.2S33.6,6,34.3,6L34.3,6z"/>
		<path class="st0" d="M37.7,8.9c0.7,0,1.2-0.5,1.2-1.2s-0.5-1.2-1.2-1.2c-0.7,0-1.2,0.5-1.2,1.2S37,8.9,37.7,8.9L37.7,8.9z"/>
		<path class="st0" d="M40.4,12.4c0.7,0,1.2-0.5,1.2-1.2c0-0.7-0.5-1.2-1.2-1.2s-1.2,0.5-1.2,1.2C39.2,11.9,39.7,12.4,40.4,12.4
			L40.4,12.4z"/>
		<path class="st0" d="M41.9,16.4c0.7,0,1.2-0.5,1.2-1.2c0-0.7-0.5-1.2-1.2-1.2c-0.7,0-1.2,0.5-1.2,1.2
			C40.7,15.8,41.3,16.4,41.9,16.4L41.9,16.4z"/>
		<path class="st0" d="M42.9,20.7c0.7,0,1.2-0.5,1.2-1.2s-0.5-1.2-1.2-1.2c-0.7,0-1.2,0.5-1.2,1.2S42.2,20.7,42.9,20.7L42.9,20.7z"
			/>
		<path class="st0" d="M42.9,25c0.7,0,1.2-0.5,1.2-1.2c0-0.7-0.5-1.2-1.2-1.2c-0.7,0-1.2,0.5-1.2,1.2C41.7,24.5,42.2,25,42.9,25
			L42.9,25z"/>
		<path class="st0" d="M41.9,29.2c0.7,0,1.2-0.5,1.2-1.2s-0.5-1.2-1.2-1.2c-0.7,0-1.2,0.5-1.2,1.2C40.7,28.6,41.3,29.2,41.9,29.2
			L41.9,29.2z"/>
		<path class="st0" d="M40.4,33.1c0.7,0,1.2-0.5,1.2-1.2s-0.5-1.2-1.2-1.2s-1.2,0.5-1.2,1.2C39.1,32.6,39.7,33.1,40.4,33.1
			L40.4,33.1z"/>
		<path class="st0" d="M37.7,36.7c0.7,0,1.2-0.5,1.2-1.2s-0.5-1.2-1.2-1.2c-0.7,0-1.2,0.5-1.2,1.2C36.4,36.1,37,36.7,37.7,36.7
			L37.7,36.7z"/>
		<path class="st0" d="M34.3,39.5c0.7,0,1.2-0.5,1.2-1.2s-0.5-1.2-1.2-1.2s-1.2,0.5-1.2,1.2S33.7,39.5,34.3,39.5L34.3,39.5z"/>
		<path class="st0" d="M30.5,41.8c0.7,0,1.2-0.5,1.2-1.2c0-0.7-0.5-1.2-1.2-1.2s-1.2,0.5-1.2,1.2C29.3,41.2,29.8,41.8,30.5,41.8
			L30.5,41.8z"/>
		<path class="st0" d="M26.3,43c0.7,0,1.2-0.5,1.2-1.2c0-0.7-0.5-1.2-1.2-1.2c-0.7,0-1.2,0.5-1.2,1.2C25.1,42.5,25.7,43,26.3,43
			L26.3,43z"/>
	</g>
</g>
</svg>
