<?xml version="1.0" encoding="utf-8"?>
<!-- Generator: Adobe Illustrator 21.0.2, SVG Export Plug-In . SVG Version: 6.00 Build 0)  -->
<svg version="1.1"
	 id="Слой_1" text-rendering="geometricPrecision" shape-rendering="geometricPrecision" image-rendering="optimizeQuality"
	 xmlns="http://www.w3.org/2000/svg" xmlns:xlink="http://www.w3.org/1999/xlink" x="0px" y="0px" width="229.5px" height="165.6px"
	 viewBox="0 0 229.5 165.6" style="enable-background:new 0 0 229.5 165.6;" xml:space="preserve">
<style type="text/css">
	.st0{fill:#FFFFFF;}
</style>
<g id="Layer_x0020_1">
	<g id="_3141171613344">
		<polygon class="st0" points="93,28.5 125.3,28.5 125.3,37.4 103.5,37.4 103.5,57.2 125.3,57.2 125.3,51.5 108.7,51.5 108.7,42.7 
			135.7,42.7 135.7,57.2 135.7,57.2 135.7,66 135.7,66 135.7,80.1 108.7,80.1 108.7,71.3 125.3,71.3 125.3,66 93,66 		"/>
		<path class="st0" d="M226.9,133.9c1,0,1.8,0.1,2.6,0.2l-0.5,3c-0.9-0.2-1.7-0.3-2.4-0.3c-1.7,0-3.2,0.7-4.5,2.1
			c-1.2,1.4-1.9,3.2-1.9,5.3v11.6h-3.3v-21.6h2.7l0.4,4h0.2c0.8-1.4,1.8-2.5,2.9-3.2C224.3,134.3,225.6,133.9,226.9,133.9
			L226.9,133.9z M202.7,136.7c-1.7,0-3.1,0.6-4.1,1.7c-1,1.1-1.7,2.7-1.8,4.7H208c0-2.1-0.5-3.6-1.4-4.7
			C205.7,137.2,204.4,136.7,202.7,136.7L202.7,136.7z M203.6,156.3c-3.2,0-5.7-1-7.6-2.9c-1.9-1.9-2.8-4.7-2.8-8.1
			c0-3.5,0.8-6.2,2.6-8.3c1.7-2.1,4-3.1,6.9-3.1c2.7,0,4.8,0.9,6.4,2.7c1.6,1.8,2.4,4.1,2.4,7v2.1h-14.9c0.1,2.6,0.7,4.5,1.9,5.8
			c1.2,1.3,2.9,2,5.2,2c2.3,0,4.6-0.5,6.9-1.4v2.9c-1.2,0.5-2.3,0.9-3.3,1.1C206.3,156.2,205.1,156.3,203.6,156.3L203.6,156.3z
			 M174.6,141.2c0,1.5,0.4,2.6,1.3,3.4c0.8,0.8,2,1.2,3.6,1.2c3.2,0,4.8-1.5,4.8-4.6c0-3.2-1.6-4.9-4.8-4.9c-1.5,0-2.7,0.4-3.6,1.2
			C175,138.4,174.6,139.6,174.6,141.2L174.6,141.2z M172.8,159.5c0,1.2,0.5,2.1,1.5,2.6c1,0.6,2.4,0.9,4.2,0.9
			c2.7,0,4.8-0.4,6.1-1.2c1.3-0.8,2-1.9,2-3.3c0-1.2-0.3-2-1.1-2.4c-0.7-0.4-2.1-0.7-4.1-0.7h-3.9c-1.5,0-2.6,0.4-3.5,1.1
			C173.2,157.2,172.8,158.2,172.8,159.5L172.8,159.5z M190,134.3v2.1l-4,0.5c0.4,0.5,0.7,1.1,1,1.8c0.3,0.8,0.4,1.6,0.4,2.5
			c0,2.1-0.7,3.8-2.2,5c-1.4,1.3-3.4,1.9-5.9,1.9c-0.6,0-1.2-0.1-1.8-0.2c-1.4,0.7-2.1,1.7-2.1,2.8c0,0.6,0.2,1,0.7,1.3
			c0.5,0.3,1.3,0.4,2.5,0.4h3.8c2.3,0,4.1,0.5,5.4,1.5c1.3,1,1.9,2.4,1.9,4.3c0,2.4-1,4.2-2.9,5.5c-1.9,1.3-4.7,1.9-8.4,1.9
			c-2.8,0-5-0.5-6.5-1.6c-1.5-1-2.3-2.5-2.3-4.4c0-1.3,0.4-2.4,1.3-3.4c0.8-1,2-1.6,3.6-1.9c-0.6-0.3-1-0.6-1.4-1.2
			c-0.4-0.5-0.6-1.1-0.6-1.8c0-0.8,0.2-1.5,0.6-2.1c0.4-0.6,1.1-1.2,2-1.7c-1.1-0.5-2-1.2-2.7-2.3c-0.7-1.1-1.1-2.4-1.1-3.8
			c0-2.4,0.7-4.2,2.1-5.5c1.4-1.3,3.4-1.9,6-1.9c1.1,0,2.1,0.1,3,0.4H190z M155.8,153.6c2.2,0,3.9-0.6,4.9-1.8
			c1-1.2,1.5-3.2,1.5-5.9v-0.7c0-3.1-0.5-5.2-1.5-6.6c-1-1.3-2.6-2-4.9-2c-1.9,0-3.4,0.8-4.4,2.2c-1,1.5-1.5,3.6-1.5,6.3
			c0,2.8,0.5,4.8,1.5,6.2C152.4,152.9,153.8,153.6,155.8,153.6L155.8,153.6z M162.3,153h-0.2c-1.5,2.2-3.8,3.3-6.8,3.3
			c-2.8,0-5-1-6.6-2.9c-1.6-1.9-2.4-4.7-2.4-8.2c0-3.6,0.8-6.3,2.4-8.3c1.6-2,3.8-3,6.6-3c2.9,0,5.2,1.1,6.7,3.2h0.3l-0.1-1.5
			l-0.1-1.5v-8.8h3.3v30.6h-2.7L162.3,153z M133.2,136.7c-1.7,0-3.1,0.6-4.1,1.7c-1,1.1-1.6,2.7-1.8,4.7h11.3c0-2.1-0.5-3.6-1.4-4.7
			C136.3,137.2,135,136.7,133.2,136.7L133.2,136.7z M134.1,156.3c-3.2,0-5.7-1-7.5-2.9c-1.9-1.9-2.8-4.7-2.8-8.1
			c0-3.5,0.9-6.2,2.6-8.3c1.7-2.1,4-3.1,6.9-3.1c2.7,0,4.8,0.9,6.4,2.7c1.6,1.8,2.4,4.1,2.4,7v2.1h-14.9c0.1,2.6,0.7,4.5,1.9,5.8
			c1.2,1.3,2.9,2,5.1,2c2.3,0,4.6-0.5,6.9-1.4v2.9c-1.2,0.5-2.3,0.9-3.3,1.1C136.8,156.2,135.6,156.3,134.1,156.3L134.1,156.3z
			 M104.6,155.9v-28.8h3.3v25.8h12.7v3H104.6z"/>
		<path class="st0" d="M94.5,155.9v-14c0-1.7-0.4-3.1-1.2-3.9c-0.8-0.9-2.1-1.3-3.8-1.3c-2.3,0-3.9,0.6-5,1.8
			c-1.1,1.2-1.6,3.2-1.6,6v11.3h-3.3v-21.6h2.7l0.5,3h0.2c0.7-1.1,1.6-1.9,2.8-2.5c1.2-0.6,2.6-0.9,4-0.9c2.6,0,4.6,0.6,5.9,1.9
			c1.3,1.2,2,3.3,2,6v14.1H94.5z M65.4,136.7c-1.7,0-3.1,0.6-4.1,1.7c-1,1.1-1.6,2.7-1.8,4.7h11.3c0-2.1-0.4-3.6-1.4-4.7
			C68.4,137.2,67.1,136.7,65.4,136.7L65.4,136.7z M66.2,156.3c-3.2,0-5.7-1-7.5-2.9c-1.9-1.9-2.8-4.7-2.8-8.1c0-3.5,0.8-6.2,2.6-8.3
			c1.7-2.1,4-3.1,6.9-3.1c2.7,0,4.8,0.9,6.4,2.7c1.6,1.8,2.4,4.1,2.4,7v2.1H59.3c0.1,2.6,0.7,4.5,1.9,5.8c1.2,1.3,2.9,2,5.1,2
			c2.3,0,4.6-0.5,6.9-1.4v2.9c-1.2,0.5-2.2,0.9-3.3,1.1C68.9,156.2,67.7,156.3,66.2,156.3L66.2,156.3z M42,136.7
			c-2.2,0-3.8,0.6-4.8,1.8c-1,1.2-1.5,3.2-1.5,5.8v0.7c0,3,0.5,5.2,1.5,6.5c1,1.3,2.6,2,4.9,2c1.9,0,3.3-0.8,4.4-2.3
			c1-1.5,1.6-3.6,1.6-6.2c0-2.7-0.5-4.8-1.6-6.2C45.4,137.4,43.9,136.7,42,136.7L42,136.7z M42.5,156.3c-1.4,0-2.7-0.3-3.9-0.8
			c-1.2-0.5-2.1-1.3-2.9-2.4h-0.2c0.2,1.2,0.2,2.5,0.2,3.6v8.9h-3.3v-31.3h2.7l0.5,3h0.1c0.9-1.2,1.8-2,3-2.6
			c1.1-0.5,2.4-0.8,3.8-0.8c2.9,0,5.1,1,6.6,2.9c1.5,1.9,2.3,4.7,2.3,8.2c0,3.6-0.8,6.3-2.4,8.3C47.5,155.3,45.3,156.3,42.5,156.3
			L42.5,156.3z M3.5,141.5c0,3.9,0.8,6.8,2.5,8.9c1.7,2,4.1,3,7.2,3c3.2,0,5.6-1,7.2-3c1.6-2,2.4-5,2.4-8.9c0-3.9-0.8-6.8-2.4-8.8
			c-1.6-2-4-3-7.2-3c-3.2,0-5.6,1-7.3,3C4.4,134.7,3.5,137.6,3.5,141.5L3.5,141.5z M26.5,141.5c0,4.6-1.2,8.2-3.5,10.9s-5.6,4-9.7,4
			c-4.2,0-7.5-1.3-9.8-3.9c-2.3-2.6-3.5-6.2-3.5-11c0-4.7,1.1-8.3,3.5-10.9c2.3-2.6,5.6-3.9,9.9-3.9c4.1,0,7.4,1.3,9.7,3.9
			C25.3,133.2,26.5,136.9,26.5,141.5L26.5,141.5z"/>
		<path class="st0" d="M113.8,0c0.9,0,1.7,0,2.6,0.1v0c1.3,0.1,2.3,1.2,2.3,2.6c0,1.3-1,2.4-2.3,2.6v0h-0.1c0,0-0.1,0-0.1,0
			c-0.1,0-0.2,0-0.3,0c-0.7,0-1.4-0.1-2-0.1c-13.7,0-26,5.5-35,14.5S64.3,41,64.3,54.6c0,13.7,5.5,26,14.5,35s21.3,14.5,35,14.5
			c0.9,0,1.7,0,2.6-0.1v0c1.4,0.1,2.5,1.2,2.5,2.6c0,1.4-1.2,2.6-2.6,2.6c0,0-0.1,0-0.1,0c-0.8,0-1.6,0.1-2.4,0.1
			c-15.1,0-28.8-6.1-38.6-16c-9.9-9.9-16-23.5-16-38.6s6.1-28.7,16-38.6C85,6.1,98.7,0,113.8,0L113.8,0z"/>
		<path class="st0" d="M125.7,6.3c1.7,0,3.1-1.4,3.1-3s-1.4-3-3.1-3c-1.7,0-3.1,1.4-3.1,3S124,6.3,125.7,6.3L125.7,6.3z"/>
		<path class="st0" d="M136.2,10c1.7,0,3.1-1.4,3.1-3c0-1.7-1.4-3-3.1-3s-3.1,1.4-3.1,3C133.1,8.6,134.5,10,136.2,10L136.2,10z"/>
		<path class="st0" d="M145.9,15.2c1.7,0,3.1-1.4,3.1-3s-1.4-3-3.1-3s-3.1,1.3-3.1,3S144.2,15.2,145.9,15.2L145.9,15.2z"/>
		<path class="st0" d="M154.4,22.5c1.7,0,3.1-1.4,3.1-3c0-1.7-1.4-3-3.1-3c-1.7,0-3.1,1.4-3.1,3C151.3,21.1,152.7,22.5,154.4,22.5
			L154.4,22.5z"/>
		<path class="st0" d="M161.2,31.4c1.7,0,3.1-1.4,3.1-3c0-1.7-1.4-3-3.1-3c-1.7,0-3.1,1.4-3.1,3C158.1,30,159.5,31.4,161.2,31.4
			L161.2,31.4z"/>
		<path class="st0" d="M165.3,41.4c1.7,0,3.1-1.4,3.1-3s-1.4-3-3.1-3s-3.1,1.4-3.1,3S163.5,41.4,165.3,41.4L165.3,41.4z"/>
		<path class="st0" d="M167.7,52.3c1.7,0,3.1-1.4,3.1-3c0-1.7-1.4-3-3.1-3c-1.7,0-3.1,1.4-3.1,3C164.6,51,166,52.3,167.7,52.3
			L167.7,52.3z"/>
		<path class="st0" d="M167.7,63.2c1.7,0,3.1-1.4,3.1-3s-1.4-3-3.1-3c-1.7,0-3.1,1.4-3.1,3S166,63.2,167.7,63.2L167.7,63.2z"/>
		<path class="st0" d="M165.3,73.7c1.7,0,3.1-1.4,3.1-3c0-1.7-1.4-3-3.1-3c-1.7,0-3.1,1.4-3.1,3C162.2,72.3,163.5,73.7,165.3,73.7
			L165.3,73.7z"/>
		<path class="st0" d="M161.3,83.8c1.7,0,3.1-1.4,3.1-3s-1.4-3-3.1-3c-1.7,0-3.1,1.4-3.1,3S159.5,83.8,161.3,83.8L161.3,83.8z"/>
		<path class="st0" d="M154.4,92.7c1.7,0,3.1-1.4,3.1-3s-1.4-3-3.1-3s-3.1,1.3-3.1,3S152.7,92.7,154.4,92.7L154.4,92.7z"/>
		<path class="st0" d="M145.9,99.9c1.7,0,3.1-1.4,3.1-3s-1.4-3-3.1-3s-3.1,1.4-3.1,3S144.2,99.9,145.9,99.9L145.9,99.9z"/>
		<path class="st0" d="M136.2,105.6c1.7,0,3.1-1.4,3.1-3c0-1.7-1.4-3-3.1-3c-1.7,0-3.1,1.4-3.1,3
			C133.1,104.2,134.5,105.6,136.2,105.6L136.2,105.6z"/>
		<path class="st0" d="M125.7,108.8c1.7,0,3.1-1.4,3.1-3s-1.4-3-3.1-3s-3.1,1.4-3.1,3S124,108.8,125.7,108.8L125.7,108.8z"/>
	</g>
</g>
</svg>
