<?xml version="1.0" encoding="utf-8"?>
<!-- Generator: Adobe Illustrator 21.0.2, SVG Export Plug-In . SVG Version: 6.00 Build 0)  -->
<svg version="1.1" id="Capa_1" xmlns="http://www.w3.org/2000/svg" xmlns:xlink="http://www.w3.org/1999/xlink" x="0px" y="0px"
	 width="16.2px" height="18.3px" viewBox="0 0 16.2 18.3" style="enable-background:new 0 0 16.2 18.3;" xml:space="preserve">
<style type="text/css">
	.st0{fill:#FFFFFF;}
</style>
<g>
	<path class="st0" d="M4.3,9.4c0-0.5-0.3-0.8-0.9-0.8c-0.2,0-0.4,0-0.5,0v1.6c0.1,0,0.2,0,0.4,0C3.9,10.2,4.3,9.9,4.3,9.4z"/>
	<path class="st0" d="M8,8.6c-0.3,0-0.4,0-0.5,0v3.5c0.1,0,0.3,0,0.4,0c1.1,0,1.8-0.6,1.8-1.9C9.7,9.2,9,8.6,8,8.6z"/>
	<path class="st0" d="M15.2,6.5h-0.4V4.4c0,0,0,0,0,0c0-0.1,0-0.2-0.1-0.2l-3.5-4c0,0,0,0,0,0c0,0,0,0-0.1-0.1c0,0,0,0,0,0
		c0,0,0,0-0.1,0c0,0,0,0,0,0c0,0-0.1,0-0.1,0H2.2C1.8,0,1.5,0.3,1.5,0.7v5.8H1c-0.6,0-1,0.5-1,1v5.3c0,0.6,0.5,1,1,1h0.4v3.6
		c0,0.4,0.3,0.7,0.7,0.7H14c0.4,0,0.7-0.3,0.7-0.7v-3.6h0.4c0.6,0,1-0.5,1-1V7.6C16.2,7,15.7,6.5,15.2,6.5z M2.2,0.7h8.3v3.7
		c0,0.2,0.2,0.4,0.4,0.4H14v1.8H2.2V0.7z M11,10.2c0,1-0.4,1.7-0.9,2.2c-0.6,0.5-1.4,0.7-2.5,0.7c-0.6,0-1.1,0-1.4-0.1V7.8
		c0.4-0.1,1-0.1,1.6-0.1c1,0,1.7,0.2,2.2,0.6C10.6,8.6,11,9.3,11,10.2z M1.6,13V7.8C2,7.7,2.5,7.7,3.3,7.7c0.7,0,1.3,0.1,1.6,0.4
		c0.3,0.3,0.6,0.7,0.6,1.2c0,0.5-0.2,1-0.5,1.3c-0.4,0.4-1,0.6-1.7,0.6c-0.2,0-0.3,0-0.4,0V13L1.6,13L1.6,13z M14,17.4H2.2v-3.5H14
		L14,17.4L14,17.4z M15,8.7H13v1.2h1.9v1H13V13h-1.2V7.7H15V8.7z"/>
</g>
</svg>
