<?xml version="1.0" encoding="utf-8"?>
<!-- Generator: Adobe Illustrator 21.0.2, SVG Export Plug-In . SVG Version: 6.00 Build 0)  -->
<svg version="1.1" id="Capa_1" xmlns="http://www.w3.org/2000/svg" xmlns:xlink="http://www.w3.org/1999/xlink" x="0px" y="0px"
	 width="36px" height="322.8px" viewBox="0 0 36 322.8" style="enable-background:new 0 0 36 322.8;" xml:space="preserve">
<style type="text/css">
	.st0{fill:#FFFFFF;}
</style>
<g>
	<path class="st0" d="M29.8,305.9c-1.4-3.4-2.1-7-2.1-10.8c0-2.4-0.7-4.3-2.1-5.7c-1.4-1.4-3.3-2.2-5.7-2.5c0.1-0.3,0.2-0.5,0.2-0.8
		c0-0.6-0.2-1.1-0.6-1.5c-0.4-0.4-0.9-0.6-1.5-0.6c-0.6,0-1.1,0.2-1.5,0.6c-0.4,0.4-0.6,0.9-0.6,1.5c0,0.3,0.1,0.5,0.2,0.8
		c-2.4,0.3-4.3,1.1-5.7,2.5c-1.4,1.4-2.1,3.3-2.1,5.7c0,3.8-0.7,7.4-2.1,10.8c-1.4,3.4-3.5,6.3-6.2,8.6c0,0.7,0.3,1.4,0.8,1.9
		c0.5,0.5,1.2,0.8,1.9,0.8h9.7c0,1.5,0.5,2.8,1.6,3.9c1.1,1.1,2.4,1.6,3.9,1.6c1.5,0,2.8-0.5,3.9-1.6c1.1-1.1,1.6-2.4,1.6-3.9h9.7
		c0.7,0,1.4-0.3,1.9-0.8c0.5-0.5,0.8-1.2,0.8-1.9C33.3,312.1,31.2,309.3,29.8,305.9z M18,321c-1.1,0-2-0.4-2.7-1.1
		c-0.7-0.7-1.1-1.6-1.1-2.7c0-0.2,0.1-0.3,0.3-0.3c0.2,0,0.3,0.1,0.3,0.3c0,0.9,0.3,1.6,0.9,2.2c0.6,0.6,1.3,0.9,2.2,0.9
		c0.2,0,0.3,0.1,0.3,0.3C18.3,320.9,18.2,321,18,321z"/>
</g>
<g>
	<g>
		<path class="st0" d="M33,97.3c-1.2,0.5-2.5,0.9-3.9,1.1c1.4-0.8,2.5-2.2,3-3.7c-1.3,0.8-2.8,1.3-4.3,1.6c-1.2-1.3-3-2.1-4.9-2.1
			c-3.7,0-6.8,3-6.8,6.8c0,0.5,0.1,1,0.2,1.5c-5.6-0.3-10.6-3-13.9-7.1c-0.6,1-0.9,2.2-0.9,3.4c0,2.3,1.2,4.4,3,5.6
			c-1.1,0-2.2-0.3-3.1-0.8v0.1c0,3.3,2.3,6,5.4,6.6c-0.6,0.2-1.2,0.2-1.8,0.2c-0.4,0-0.9,0-1.3-0.1c0.9,2.7,3.4,4.6,6.3,4.7
			c-2.3,1.8-5.2,2.9-8.4,2.9c-0.5,0-1.1,0-1.6-0.1c3,1.9,6.5,3,10.4,3c12.4,0,19.2-10.3,19.2-19.2l0-0.9
			C30.9,99.9,32.1,98.7,33,97.3z"/>
	</g>
</g>
<g>
	<path class="st0" d="M24.8,0l-3.9,0c-4.4,0-7.2,2.9-7.2,7.4v3.4H9.8c-0.3,0-0.6,0.3-0.6,0.6v4.9c0,0.3,0.3,0.6,0.6,0.6h3.9v12.4
		c0,0.3,0.3,0.6,0.6,0.6h5.1c0.3,0,0.6-0.3,0.6-0.6V16.9h4.6c0.3,0,0.6-0.3,0.6-0.6l0-4.9c0-0.2-0.1-0.3-0.2-0.4
		c-0.1-0.1-0.3-0.2-0.4-0.2H20V7.9c0-1.4,0.3-2.1,2.1-2.1l2.6,0c0.3,0,0.6-0.3,0.6-0.6V0.6C25.4,0.3,25.1,0,24.8,0z"/>
</g>
<g id="XMLID_822_">
	<path id="XMLID_823_" class="st0" d="M29.5,147.3c-0.9-1-2.5-1.5-5.6-1.5H12.7c-3.2,0-4.8,0.5-5.7,1.6c-0.9,1.1-0.9,2.7-0.9,4.9
		v4.2c0,4.3,1,6.5,6.6,6.5h11.3c2.7,0,4.2-0.4,5.1-1.3c1-0.9,1.4-2.5,1.4-5.2v-4.2C30.5,150,30.4,148.4,29.5,147.3z M21.8,155
		l-5.1,2.7c-0.1,0.1-0.2,0.1-0.4,0.1c-0.1,0-0.3,0-0.4-0.1c-0.2-0.1-0.4-0.4-0.4-0.7v-5.3c0-0.3,0.1-0.5,0.4-0.7
		c0.2-0.1,0.5-0.2,0.8,0l5.1,2.7c0.3,0.1,0.4,0.4,0.4,0.7C22.2,154.6,22,154.9,21.8,155z"/>
</g>
<g id="XMLID_496_">
	<path id="XMLID_497_" class="st0" d="M2.5,204.8l7.1,2.7l2.8,8.9c0.2,0.6,0.9,0.8,1.3,0.4l4-3.2c0.4-0.3,1-0.4,1.4,0l7.2,5.2
		c0.5,0.4,1.2,0.1,1.3-0.5l5.3-25.3c0.1-0.7-0.5-1.2-1.1-1L2.5,203.3C1.8,203.5,1.8,204.6,2.5,204.8z M12,206.1l14-8.6
		c0.3-0.2,0.5,0.2,0.3,0.4l-11.5,10.7c-0.4,0.4-0.7,0.9-0.7,1.4l-0.4,2.9c-0.1,0.4-0.6,0.4-0.7,0.1l-1.5-5.3
		C11.2,207.1,11.5,206.4,12,206.1z"/>
</g>
<g>
	<path class="st0" d="M5,45.6h23c2.2,0,4,1.6,4,4v23c0,2.4-1.8,4-4,4H5c-2.2,0-4-1.6-4-4v-23C1,47.2,2.8,45.6,5,45.6L5,45.6z
		 M23.6,49c-0.8,0-1.4,0.6-1.4,1.4v3.3c0,0.8,0.6,1.4,1.4,1.4h3.5c0.8,0,1.4-0.6,1.4-1.4v-3.3c0-0.8-0.6-1.4-1.4-1.4H23.6L23.6,49z
		 M28.5,58.7h-2.7c0.3,0.8,0.4,1.7,0.4,2.7c0,5.2-4.3,9.3-9.6,9.3c-5.3,0-9.6-4.2-9.6-9.3c0-0.9,0.1-1.8,0.4-2.7H4.5v13.1
		C4.5,72.5,5,73,5.7,73h21.6c0.7,0,1.2-0.6,1.2-1.2L28.5,58.7L28.5,58.7z M16.5,55c-3.4,0-6.2,2.7-6.2,6c0,3.3,2.8,6,6.2,6
		c3.4,0,6.2-2.7,6.2-6C22.8,57.7,20,55,16.5,55z"/>
</g>
<g>
	<g>
		<path class="st0" d="M5.1,248.4c0.4,0.3,1.6,1.1,3.5,2.4c2,1.4,3.5,2.4,4.5,3.1c0.1,0.1,0.4,0.3,0.7,0.5c0.4,0.3,0.7,0.5,0.9,0.7
			c0.2,0.2,0.5,0.4,0.9,0.6c0.3,0.2,0.7,0.4,1,0.5c0.3,0.1,0.6,0.2,0.9,0.2h0h0c0.3,0,0.5-0.1,0.9-0.2c0.3-0.1,0.6-0.3,1-0.5
			c0.3-0.2,0.6-0.4,0.9-0.6c0.2-0.2,0.6-0.4,0.9-0.7c0.4-0.3,0.6-0.4,0.7-0.5c1.1-0.7,3.7-2.6,8-5.6c0.8-0.6,1.5-1.3,2.1-2.1
			c0.6-0.8,0.8-1.7,0.8-2.6c0-0.8-0.3-1.4-0.8-1.9c-0.5-0.5-1.2-0.8-1.9-0.8H4.9c-0.9,0-1.6,0.3-2,0.9c-0.5,0.6-0.7,1.3-0.7,2.2
			c0,0.7,0.3,1.5,0.9,2.3C3.7,247.2,4.4,247.9,5.1,248.4z"/>
		<path class="st0" d="M31.1,250.2c-3.7,2.5-6.6,4.5-8.5,5.9c-0.7,0.5-1.2,0.9-1.6,1.1c-0.4,0.3-0.9,0.5-1.6,0.8
			c-0.7,0.3-1.3,0.4-1.9,0.4h0h0c-0.6,0-1.2-0.1-1.9-0.4c-0.7-0.3-1.2-0.6-1.6-0.8c-0.4-0.3-0.9-0.6-1.6-1.1
			c-1.5-1.1-4.4-3.1-8.5-5.9c-0.7-0.4-1.2-0.9-1.7-1.5v13.6c0,0.8,0.3,1.4,0.8,1.9c0.5,0.5,1.2,0.8,1.9,0.8h25.2
			c0.8,0,1.4-0.3,1.9-0.8c0.5-0.5,0.8-1.2,0.8-1.9v-13.6C32.4,249.3,31.8,249.8,31.1,250.2z"/>
	</g>
</g>
</svg>
